<svg width="20" height="20" viewBox="0 0 20 20" fill="none" xmlns="http://www.w3.org/2000/svg">
<path fill-rule="evenodd" clip-rule="evenodd" d="M1.66675 10.0013C1.66675 5.39893 5.39771 1.66797 10.0001 1.66797C14.6025 1.66797 18.3334 5.39893 18.3334 10.0013C18.3334 14.6037 14.6025 18.3346 10.0001 18.3346C5.39771 18.3346 1.66675 14.6037 1.66675 10.0013ZM14.5057 7.89676C14.7241 7.70956 14.7494 7.38076 14.5622 7.16236C14.375 6.94396 14.0462 6.91867 13.8278 7.10587L8.36066 11.792L6.2017 9.63303C5.9983 9.42963 5.66853 9.42963 5.46513 9.63303C5.26173 9.83642 5.26173 10.1662 5.46513 10.3696L7.96513 12.8696C8.15757 13.062 8.46573 13.0739 8.67237 12.8968L14.5057 7.89676Z" fill="#24A148"/>
</svg>
