<svg width="20" height="20" viewBox="0 0 20 20" fill="none" xmlns="http://www.w3.org/2000/svg">
<path fill-rule="evenodd" clip-rule="evenodd" d="M10.0001 1.66675C5.39771 1.66675 1.66675 5.39771 1.66675 10.0001C1.66675 14.6025 5.39771 18.3334 10.0001 18.3334C14.6025 18.3334 18.3334 14.6025 18.3334 10.0001C18.3334 5.39771 14.6025 1.66675 10.0001 1.66675ZM9.37508 6.25008C9.37508 5.9049 9.6549 5.62508 10.0001 5.62508C10.3453 5.62508 10.6251 5.9049 10.6251 6.25008V11.6667C10.6251 12.0119 10.3453 12.2917 10.0001 12.2917C9.6549 12.2917 9.37508 12.0119 9.37508 11.6667V6.25008ZM10.6251 13.7501C10.6251 14.0953 10.3453 14.3751 10.0001 14.3751C9.6549 14.3751 9.37508 14.0953 9.37508 13.7501C9.37508 13.4049 9.6549 13.1251 10.0001 13.1251C10.3453 13.1251 10.6251 13.4049 10.6251 13.7501Z" fill="#DA1E28"/>
</svg>
